<svg xmlns="http://www.w3.org/2000/svg" xmlns:xlink="http://www.w3.org/1999/xlink" viewBox="0 0 273.33 171.91"><defs><style>.cls-1{fill:none;}.cls-2{fill:#163255;}.cls-3{fill:#ff671c;}.cls-4{clip-path:url(#clip-path);}.cls-5{fill:url(#Degradado_sin_nombre_74);}.cls-6{clip-path:url(#clip-path-2);}.cls-7{fill:url(#Degradado_sin_nombre_74-2);}.cls-8{clip-path:url(#clip-path-3);}.cls-9{fill:url(#Degradado_sin_nombre_74-3);}.cls-10{clip-path:url(#clip-path-4);}.cls-11{fill:url(#Degradado_sin_nombre_74-4);}.cls-12{clip-path:url(#clip-path-5);}.cls-13{fill:url(#Degradado_sin_nombre_74-5);}.cls-14{clip-path:url(#clip-path-6);}.cls-15{fill:url(#Degradado_sin_nombre_89);}.cls-16{clip-path:url(#clip-path-7);}.cls-17{fill:url(#Degradado_sin_nombre_89-2);}.cls-18{clip-path:url(#clip-path-8);}.cls-19{fill:url(#Degradado_sin_nombre_80);}.cls-20{clip-path:url(#clip-path-9);}.cls-21{fill:url(#Degradado_sin_nombre_89-3);}.cls-22{clip-path:url(#clip-path-10);}.cls-23{fill:url(#Degradado_sin_nombre_89-4);}.cls-24{clip-path:url(#clip-path-11);}.cls-25{fill:url(#Degradado_sin_nombre_80-2);}.cls-26{clip-path:url(#clip-path-12);}.cls-27{fill:url(#Degradado_sin_nombre_89-5);}.cls-28{clip-path:url(#clip-path-13);}.cls-29{fill:url(#Degradado_sin_nombre_89-6);}.cls-30{clip-path:url(#clip-path-14);}.cls-31{fill:url(#Degradado_sin_nombre_83);}.cls-32{clip-path:url(#clip-path-15);}.cls-33{fill:url(#Degradado_sin_nombre_89-7);}.cls-34{clip-path:url(#clip-path-16);}.cls-35{fill:url(#Degradado_sin_nombre_89-8);}.cls-36{clip-path:url(#clip-path-17);}.cls-37{fill:url(#Degradado_sin_nombre_89-9);}.cls-38{clip-path:url(#clip-path-18);}.cls-39{fill:url(#Degradado_sin_nombre_89-10);}.cls-40{clip-path:url(#clip-path-19);}.cls-41{fill:url(#Degradado_sin_nombre_89-11);}.cls-42{clip-path:url(#clip-path-20);}.cls-43{fill:url(#Degradado_sin_nombre_89-12);}</style><clipPath id="clip-path" transform="translate(0 15.65)"><path class="cls-1" d="M146.82,18.27A18.27,18.27,0,1,0,165.09,0a18.3,18.3,0,0,0-18.27,18.27"/></clipPath><linearGradient id="Degradado_sin_nombre_74" x1="36.7" y1="1824.64" x2="37.7" y2="1824.64" gradientTransform="matrix(0, -36.53, -36.53, 0, 66816.82, 1380.51)" gradientUnits="userSpaceOnUse"><stop offset="0" stop-color="#0d344c"/><stop offset="0.32" stop-color="#0d344c"/><stop offset="1" stop-color="#00becf"/></linearGradient><clipPath id="clip-path-2" transform="translate(0 15.65)"><path class="cls-1" d="M149.91,131.33a12.46,12.46,0,1,0,12.46-12.47,12.47,12.47,0,0,0-12.46,12.47"/></clipPath><linearGradient id="Degradado_sin_nombre_74-2" x1="-49.2" y1="1802.57" x2="-48.2" y2="1802.57" gradientTransform="matrix(-26.08, 0, 0, 26.08, -1102.42, -46877.73)" xlink:href="#Degradado_sin_nombre_74"/><clipPath id="clip-path-3" transform="translate(0 15.65)"><path class="cls-1" d="M208.76,126.27a16.44,16.44,0,1,0,16.44-16.44,16.46,16.46,0,0,0-16.44,16.44"/></clipPath><linearGradient id="Degradado_sin_nombre_74-3" x1="-47.2" y1="1852.65" x2="-46.2" y2="1852.65" gradientTransform="matrix(0, 32.88, 32.88, 0, -60685.89, 1656.04)" xlink:href="#Degradado_sin_nombre_74"/><clipPath id="clip-path-4" transform="translate(0 15.65)"><path class="cls-1" d="M248.19,71.21a12.57,12.57,0,1,0,12.57-12.57,12.58,12.58,0,0,0-12.57,12.57"/></clipPath><linearGradient id="Degradado_sin_nombre_74-4" x1="-13.49" y1="1898.49" x2="-12.49" y2="1898.49" gradientTransform="matrix(25.14, 0, 0, -25.14, 587.41, 47818.26)" xlink:href="#Degradado_sin_nombre_74"/><clipPath id="clip-path-5" transform="translate(0 15.65)"><path class="cls-1" d="M225.05,1.36A10.22,10.22,0,0,0,221.84,20,10.22,10.22,0,1,0,227.3,1.11a10.27,10.27,0,0,0-2.25.25"/></clipPath><linearGradient id="Degradado_sin_nombre_74-5" x1="57.29" y1="1883.23" x2="58.29" y2="1883.23" gradientTransform="matrix(20.43, 0, 0, -20.43, -957.7, 38494.32)" xlink:href="#Degradado_sin_nombre_74"/><clipPath id="clip-path-6" transform="translate(0 15.65)"><path class="cls-1" d="M181.92,49.62a.5.5,0,0,0-.2.66l1.37,2.56a.47.47,0,0,0,.43.26.46.46,0,0,0,.22-.06.47.47,0,0,0,.2-.65l-1.36-2.57a.5.5,0,0,0-.43-.25.59.59,0,0,0-.23,0"/></clipPath><linearGradient id="Degradado_sin_nombre_89" x1="90.7" y1="1911.08" x2="91.7" y2="1911.08" gradientTransform="matrix(12.93, 0, 0, -12.93, -991.42, 24766.91)" gradientUnits="userSpaceOnUse"><stop offset="0" stop-color="#093149"/><stop offset="0.94" stop-color="#191919"/><stop offset="1" stop-color="#191919"/></linearGradient><clipPath id="clip-path-7" transform="translate(0 15.65)"><path class="cls-1" d="M177.08,40.53a.48.48,0,0,0-.2.66l2.42,4.54a.47.47,0,0,0,.43.26.53.53,0,0,0,.23-.06.48.48,0,0,0,.19-.65l-2.42-4.55a.47.47,0,0,0-.42-.25.46.46,0,0,0-.23.05"/></clipPath><linearGradient id="Degradado_sin_nombre_89-2" x1="125.73" y1="1938.25" x2="126.73" y2="1938.25" gradientTransform="matrix(9.41, 0, 0, -9.41, -1009.6, 18279.39)" xlink:href="#Degradado_sin_nombre_89"/><clipPath id="clip-path-8" transform="translate(0 15.65)"><path class="cls-1" d="M173.29,33.42a.48.48,0,0,0-.2.66l1.37,2.56a.48.48,0,0,0,.42.26.46.46,0,0,0,.23-.06.48.48,0,0,0,.2-.66L174,33.62a.51.51,0,0,0-.43-.26.46.46,0,0,0-.23.06"/></clipPath><linearGradient id="Degradado_sin_nombre_80" x1="90.69" y1="1911.08" x2="91.69" y2="1911.08" gradientTransform="matrix(12.93, 0, 0, -12.93, -1010.49, 24752.15)" gradientUnits="userSpaceOnUse"><stop offset="0" stop-color="#0d344c"/><stop offset="0.32" stop-color="#0d344c"/><stop offset="1" stop-color="#0d344c"/></linearGradient><clipPath id="clip-path-9" transform="translate(0 15.65)"><path class="cls-1" d="M205.62,49.35l-1.37,2.57a.47.47,0,0,0,.2.65.46.46,0,0,0,.23.06.46.46,0,0,0,.42-.26l1.37-2.56a.48.48,0,0,0-.2-.66.59.59,0,0,0-.23,0,.47.47,0,0,0-.42.25"/></clipPath><linearGradient id="Degradado_sin_nombre_89-3" x1="29.49" y1="1863.61" x2="30.49" y2="1863.61" gradientTransform="matrix(37.43, 0, 0, -37.43, -900.64, 69807.25)" xlink:href="#Degradado_sin_nombre_89"/><clipPath id="clip-path-10" transform="translate(0 15.65)"><path class="cls-1" d="M211.39,38.54l-2.89,5.4a.5.5,0,0,0,.2.66.46.46,0,0,0,.23.06.51.51,0,0,0,.43-.26L212.24,39a.47.47,0,0,0-.2-.65.46.46,0,0,0-.22-.06.47.47,0,0,0-.43.26m5.77-10.82-2.89,5.41a.49.49,0,0,0,.86.45L218,28.17a.47.47,0,0,0-.2-.65.46.46,0,0,0-.22-.06.47.47,0,0,0-.43.26"/></clipPath><linearGradient id="Degradado_sin_nombre_89-4" x1="34.6" y1="1867.58" x2="35.6" y2="1867.58" gradientTransform="matrix(32.32, 0, 0, -32.32, -922.39, 60390.51)" xlink:href="#Degradado_sin_nombre_89"/><clipPath id="clip-path-11" transform="translate(0 15.65)"><path class="cls-1" d="M221.41,19.74,220,22.31a.49.49,0,0,0,.86.45l1.37-2.56a.5.5,0,0,0-.2-.66.64.64,0,0,0-.23-.05.5.5,0,0,0-.43.25"/></clipPath><linearGradient id="Degradado_sin_nombre_80-2" x1="29.48" y1="1863.61" x2="30.48" y2="1863.61" gradientTransform="matrix(37.44, 0, 0, -37.44, -917.7, 69788.26)" xlink:href="#Degradado_sin_nombre_80"/><clipPath id="clip-path-12" transform="translate(0 15.65)"><path class="cls-1" d="M215.36,70.59a.49.49,0,1,0,0,1h2.9a.49.49,0,1,0,0-1Z"/></clipPath><linearGradient id="Degradado_sin_nombre_89-5" x1="71.68" y1="1896.33" x2="72.68" y2="1896.33" gradientTransform="matrix(16.23, 0, 0, -16.23, -947.8, 30855.62)" xlink:href="#Degradado_sin_nombre_89"/><clipPath id="clip-path-13" transform="translate(0 15.65)"><path class="cls-1" d="M223.67,70.59a.49.49,0,1,0,0,1h5.4a.49.49,0,0,0,0-1Zm10.8,0a.49.49,0,0,0,0,1h5.41a.49.49,0,0,0,0-1Z"/></clipPath><linearGradient id="Degradado_sin_nombre_89-6" x1="82.69" y1="1904.88" x2="83.69" y2="1904.88" gradientTransform="matrix(14.14, 0, 0, -14.14, -945.36, 27011.73)" xlink:href="#Degradado_sin_nombre_89"/><clipPath id="clip-path-14" transform="translate(0 15.65)"><path class="cls-1" d="M245.28,70.59a.49.49,0,0,0,0,1h2.91a.49.49,0,0,0,0-1Z"/></clipPath><linearGradient id="Degradado_sin_nombre_83" x1="71.68" y1="1896.33" x2="72.68" y2="1896.33" gradientTransform="matrix(16.23, 0, 0, -16.23, -932.21, 30855.6)" gradientUnits="userSpaceOnUse"><stop offset="0" stop-color="#093149"/><stop offset="0.94" stop-color="#0d344c"/><stop offset="1" stop-color="#0d344c"/></linearGradient><clipPath id="clip-path-15" transform="translate(0 15.65)"><path class="cls-1" d="M183.77,90l-1.37,2.57a.49.49,0,0,0,.2.65.53.53,0,0,0,.23.06.47.47,0,0,0,.43-.26l1.37-2.56a.5.5,0,0,0-.2-.66.46.46,0,0,0-.23,0,.5.5,0,0,0-.43.25"/></clipPath><linearGradient id="Degradado_sin_nombre_89-7" x1="31.65" y1="1865.29" x2="32.65" y2="1865.29" gradientTransform="matrix(35.08, 0, 0, -35.08, -960.07, 65531.82)" xlink:href="#Degradado_sin_nombre_89"/><clipPath id="clip-path-16" transform="translate(0 15.65)"><path class="cls-1" d="M174.4,107.51l-2.66,5a.48.48,0,0,0,.2.66.46.46,0,0,0,.22.06.48.48,0,0,0,.43-.26l2.67-5a.48.48,0,0,0-.2-.66.46.46,0,0,0-.23,0,.5.5,0,0,0-.43.25m5.34-10-2.67,5a.5.5,0,0,0,.2.66.59.59,0,0,0,.23,0,.5.5,0,0,0,.43-.25l2.66-5a.47.47,0,0,0-.2-.65.46.46,0,0,0-.22-.06.47.47,0,0,0-.43.26"/></clipPath><linearGradient id="Degradado_sin_nombre_89-8" x1="37.09" y1="1869.51" x2="38.09" y2="1869.51" gradientTransform="matrix(30.3, 0, 0, -30.3, -961.64, 56750.15)" xlink:href="#Degradado_sin_nombre_89"/><clipPath id="clip-path-17" transform="translate(0 15.65)"><path class="cls-1" d="M169.07,117.49l-1.37,2.57a.49.49,0,0,0,.86.45l1.37-2.56a.49.49,0,0,0-.43-.71.5.5,0,0,0-.43.25"/></clipPath><linearGradient id="Degradado_sin_nombre_89-9" x1="31.65" y1="1865.29" x2="32.65" y2="1865.29" gradientTransform="matrix(35.08, 0, 0, -35.08, -943.35, 65555.31)" xlink:href="#Degradado_sin_nombre_89"/><clipPath id="clip-path-18" transform="translate(0 15.65)"><path class="cls-1" d="M204.33,89.29a.48.48,0,0,0-.19.65l1.43,2.54a.46.46,0,0,0,.42.24.43.43,0,0,0,.24-.06.49.49,0,0,0,.18-.66L205,89.47a.49.49,0,0,0-.42-.25.4.4,0,0,0-.24.07"/></clipPath><linearGradient id="Degradado_sin_nombre_89-10" x1="78.43" y1="1901.57" x2="79.43" y2="1901.57" gradientTransform="matrix(14.88, 0, 0, -14.88, -975.67, 28394.77)" xlink:href="#Degradado_sin_nombre_89"/><clipPath id="clip-path-19" transform="translate(0 15.65)"><path class="cls-1" d="M209,97.56a.49.49,0,0,0-.18.66L212,104a.49.49,0,0,0,.42.24.53.53,0,0,0,.24-.06.48.48,0,0,0,.18-.66l-3.22-5.74a.48.48,0,0,0-.42-.25.44.44,0,0,0-.24.07"/></clipPath><linearGradient id="Degradado_sin_nombre_89-11" x1="110.44" y1="1926.4" x2="111.44" y2="1926.4" gradientTransform="matrix(10.68, 0, 0, -10.68, -973.18, 20671.11)" xlink:href="#Degradado_sin_nombre_89"/><clipPath id="clip-path-20" transform="translate(0 15.65)"><path class="cls-1" d="M215.42,109a.48.48,0,0,0-.19.66l1.42,2.54a.51.51,0,0,0,.43.24.46.46,0,0,0,.23-.06.48.48,0,0,0,.19-.66l-1.42-2.53a.5.5,0,0,0-.43-.25.46.46,0,0,0-.23.06"/></clipPath><linearGradient id="Degradado_sin_nombre_89-12" x1="78.44" y1="1901.58" x2="79.44" y2="1901.58" gradientTransform="matrix(14.88, 0, 0, -14.88, -952.51, 28411.79)" xlink:href="#Degradado_sin_nombre_89"/></defs><g id="Capa_2" data-name="Capa 2"><g id="Capa_1-2" data-name="Capa 1"><path class="cls-2" d="M29.64,88.11V76.21c0-1.46.05-3,.17-4.53s.23-2.85.36-3.9.2-1.73.24-2h-.2L24.12,88.11H15.83L9.69,65.81H9.5c0,.29.12,1,.26,2s.28,2.33.41,3.88.19,3.07.19,4.53v11.9H.63v-33h15l5,19h.19l4.94-19H40.14v33Z" transform="translate(0 15.65)"/><path class="cls-2" d="M66.32,88.11l-1.39-4.66H53.37L52,88.11H41.15l12-33H65.51l12,33Zm-10.74-12h7.14L59.27,64.32h-.19Z" transform="translate(0 15.65)"/><path class="cls-2" d="M105.71,56.15a8.11,8.11,0,0,1,3.31,2.9,7.41,7.41,0,0,1,1.22,4.17q0,6.09-5.51,7.67v.19Q111,72.52,111,79.33a8.38,8.38,0,0,1-1.27,4.58A8.55,8.55,0,0,1,106.26,87a10.6,10.6,0,0,1-4.84,1.11H79.17v-33h22a10.16,10.16,0,0,1,4.58,1M89.77,68h7.29a2.3,2.3,0,0,0,1.75-.75,2.59,2.59,0,0,0,.69-1.84V64.9a2.51,2.51,0,0,0-.72-1.8,2.32,2.32,0,0,0-1.72-.74H89.77Zm0,12.46h8a2.26,2.26,0,0,0,1.75-.74,2.56,2.56,0,0,0,.7-1.84v-.48a2.58,2.58,0,0,0-.7-1.85,2.26,2.26,0,0,0-1.75-.74h-8Z" transform="translate(0 15.65)"/><polygon class="cls-3" points="133.12 79.21 133.12 103.76 122.52 103.76 122.52 79.21 111.68 79.21 111.68 70.77 143.91 70.77 143.91 79.21 133.12 79.21"/><polygon class="cls-3" points="146.4 70.77 174.93 70.77 174.93 78.68 157 78.68 157 83.24 172.34 83.24 172.34 90.81 157 90.81 157 95.85 175.26 95.85 175.26 103.76 146.4 103.76 146.4 70.77"/><path class="cls-3" d="M206,58.21q4.26,3.66,4.27,10.48H200.15a6.55,6.55,0,0,0-1.51-4.56,6.44,6.44,0,0,0-9,.34,9.21,9.21,0,0,0-1.51,5.61v3.07a9.24,9.24,0,0,0,1.51,5.58,5.39,5.39,0,0,0,4.63,2,6.31,6.31,0,0,0,4.65-1.58,6,6,0,0,0,1.59-4.46h9.78q0,6.75-4.15,10.36T194.4,88.68q-8.44,0-12.78-4.31t-4.34-12.76q0-8.44,4.34-12.75t12.78-4.32q7.33,0,11.6,3.67" transform="translate(0 15.65)"/><g class="cls-4"><rect class="cls-5" x="140.2" y="-6.63" width="49.79" height="49.79" transform="translate(12.39 99.27) rotate(-29.48)"/></g><g class="cls-6"><rect class="cls-7" x="145.54" y="114.5" width="33.66" height="33.66" transform="translate(-29.4 229.66) rotate(-62.29)"/></g><g class="cls-8"><rect class="cls-9" x="203" y="104.07" width="44.4" height="44.4" transform="translate(-32.89 134.89) rotate(-27.72)"/></g><g class="cls-10"><rect class="cls-11" x="248.19" y="74.29" width="25.14" height="25.14"/></g><g class="cls-12"><rect class="cls-13" x="213.43" y="-2.69" width="27.73" height="28.05" transform="translate(115.63 225.29) rotate(-63.47)"/></g><path class="cls-2" d="M4.88,98.61a.35.35,0,0,1,.33.2.84.84,0,0,1,.11.41.77.77,0,0,1-.12.43.34.34,0,0,1-.32.19H3.35v6a.35.35,0,0,1-.22.32,1.06,1.06,0,0,1-.94,0,.35.35,0,0,1-.21-.32v-6H.43a.35.35,0,0,1-.32-.18A.87.87,0,0,1,0,99.22a.83.83,0,0,1,.1-.41.35.35,0,0,1,.33-.2Z" transform="translate(0 15.65)"/><path class="cls-2" d="M10.06,101.92h1.6a.34.34,0,0,1,.32.17.61.61,0,0,1,.12.37.72.72,0,0,1-.11.36.37.37,0,0,1-.33.17h-1.6v2.12h3a.35.35,0,0,1,.32.18.77.77,0,0,1,.11.43.82.82,0,0,1-.1.4.36.36,0,0,1-.33.19H9.29a.81.81,0,0,1-.41-.11.37.37,0,0,1-.19-.33V99a.37.37,0,0,1,.19-.32.81.81,0,0,1,.41-.11H13a.35.35,0,0,1,.33.19.82.82,0,0,1,.1.4.77.77,0,0,1-.11.43.35.35,0,0,1-.32.18h-3Z" transform="translate(0 15.65)"/><path class="cls-2" d="M20.32,100.85c0-.08,0-.18,0-.3a.85.85,0,0,0-.15-.34.8.8,0,0,0-.32-.28,1.18,1.18,0,0,0-.59-.12,1.09,1.09,0,0,0-.82.3,1.26,1.26,0,0,0-.28.91V104a1.26,1.26,0,0,0,.29.92,1.13,1.13,0,0,0,.83.29,1.15,1.15,0,0,0,.57-.12.8.8,0,0,0,.32-.28.93.93,0,0,0,.14-.36,2.52,2.52,0,0,0,.05-.37.36.36,0,0,1,.21-.33.92.92,0,0,1,.46-.1.84.84,0,0,1,.53.14.68.68,0,0,1,.17.54,1.9,1.9,0,0,1-.19.86,1.76,1.76,0,0,1-.52.66,2.24,2.24,0,0,1-.8.41,3.29,3.29,0,0,1-1,.15,3.24,3.24,0,0,1-.94-.13,2.14,2.14,0,0,1-.77-.42,1.94,1.94,0,0,1-.52-.74,2.85,2.85,0,0,1-.19-1.12V101a2.88,2.88,0,0,1,.19-1.12,2,2,0,0,1,.53-.74,2.14,2.14,0,0,1,.77-.42,3.62,3.62,0,0,1,.94-.13,3.57,3.57,0,0,1,1,.14,2.61,2.61,0,0,1,.8.4,1.86,1.86,0,0,1,.51.64,1.71,1.71,0,0,1,.19.82.65.65,0,0,1-.17.54.83.83,0,0,1-.52.14,1.14,1.14,0,0,1-.48-.1.35.35,0,0,1-.2-.34" transform="translate(0 15.65)"/><path class="cls-2" d="M29.67,106.31a1,1,0,0,1-.45-.1.7.7,0,0,1-.34-.34l-2.27-4.23v4.23a.36.36,0,0,1-.21.33,1.08,1.08,0,0,1-.47.11,1,1,0,0,1-.47-.11.35.35,0,0,1-.22-.33V99a.34.34,0,0,1,.22-.32,1,1,0,0,1,.47-.11,1.45,1.45,0,0,1,.32,0,.63.63,0,0,1,.25.1,1.14,1.14,0,0,1,.22.22,2.9,2.9,0,0,1,.23.38l2,3.93V99a.33.33,0,0,1,.21-.32,1.06,1.06,0,0,1,.48-.1,1,1,0,0,1,.46.1.33.33,0,0,1,.22.32v6.84a.35.35,0,0,1-.22.33,1,1,0,0,1-.46.11" transform="translate(0 15.65)"/><path class="cls-2" d="M36.63,106.37a3.37,3.37,0,0,1-1-.13,2.1,2.1,0,0,1-.78-.42,1.94,1.94,0,0,1-.52-.74,3,3,0,0,1-.19-1.12V101a3.08,3.08,0,0,1,.19-1.12,2,2,0,0,1,.52-.74,2.1,2.1,0,0,1,.78-.42,3.75,3.75,0,0,1,1-.13,3.71,3.71,0,0,1,1,.13,2.07,2.07,0,0,1,.79.42,1.93,1.93,0,0,1,.53.74A2.88,2.88,0,0,1,39.1,101V104a2.85,2.85,0,0,1-.19,1.12,1.85,1.85,0,0,1-.53.74,2.07,2.07,0,0,1-.79.42,3.32,3.32,0,0,1-1,.13m1.1-5.35a1.27,1.27,0,0,0-.29-.92,1.13,1.13,0,0,0-.81-.29,1.11,1.11,0,0,0-.82.29,1.31,1.31,0,0,0-.28.92V104a1.31,1.31,0,0,0,.28.92,1.11,1.11,0,0,0,.82.29,1.13,1.13,0,0,0,.81-.29,1.27,1.27,0,0,0,.29-.92Z" transform="translate(0 15.65)"/><path class="cls-2" d="M43.5,106.31a.88.88,0,0,1-.42-.11.37.37,0,0,1-.18-.33V99a.33.33,0,0,1,.21-.32,1.15,1.15,0,0,1,.94,0,.33.33,0,0,1,.22.32v6.08h2.57a.33.33,0,0,1,.31.18.93.93,0,0,1,.1.42,1,1,0,0,1-.1.41.34.34,0,0,1-.31.19Z" transform="translate(0 15.65)"/><path class="cls-2" d="M52.88,106.37a3.3,3.3,0,0,1-1-.13,2.1,2.1,0,0,1-.78-.42,1.83,1.83,0,0,1-.52-.74,2.85,2.85,0,0,1-.19-1.12V101a2.88,2.88,0,0,1,.19-1.12,1.91,1.91,0,0,1,.52-.74,2.1,2.1,0,0,1,.78-.42,3.67,3.67,0,0,1,1-.13,3.79,3.79,0,0,1,1,.13,2.22,2.22,0,0,1,.79.42,2,2,0,0,1,.53.74,3.09,3.09,0,0,1,.18,1.12V104a3.06,3.06,0,0,1-.18,1.12,2,2,0,0,1-.53.74,2.22,2.22,0,0,1-.79.42,3.39,3.39,0,0,1-1,.13M54,101a1.23,1.23,0,0,0-.3-.92,1.13,1.13,0,0,0-.81-.29,1.1,1.1,0,0,0-.81.29,1.27,1.27,0,0,0-.28.92V104a1.27,1.27,0,0,0,.28.92,1.1,1.1,0,0,0,.81.29,1.13,1.13,0,0,0,.81-.29A1.23,1.23,0,0,0,54,104Z" transform="translate(0 15.65)"/><path class="cls-2" d="M62.64,100.85a2.38,2.38,0,0,0-.06-.37.86.86,0,0,0-.49-.57,1.21,1.21,0,0,0-.54-.1,1.1,1.1,0,0,0-.83.3,1.26,1.26,0,0,0-.28.91V104a1.3,1.3,0,0,0,.28.92,1.1,1.1,0,0,0,.81.29,1.14,1.14,0,0,0,.82-.29,1.3,1.3,0,0,0,.29-.92v-.62h-.85a.36.36,0,0,1-.32-.17.64.64,0,0,1-.1-.37.69.69,0,0,1,.1-.37.36.36,0,0,1,.32-.17h1.79a.4.4,0,0,1,.32.14.47.47,0,0,1,.11.31V104a2.85,2.85,0,0,1-.19,1.12,1.85,1.85,0,0,1-.53.74,2.07,2.07,0,0,1-.79.42,3.68,3.68,0,0,1-1.94,0,2.1,2.1,0,0,1-.78-.42,1.94,1.94,0,0,1-.52-.74,2.85,2.85,0,0,1-.19-1.12V101a2.88,2.88,0,0,1,.19-1.12,2,2,0,0,1,.52-.74,2.14,2.14,0,0,1,.77-.42,3.59,3.59,0,0,1,2,0,2.27,2.27,0,0,1,.79.4,1.82,1.82,0,0,1,.53.64,1.76,1.76,0,0,1,.19.84c0,.27-.06.45-.18.53a.87.87,0,0,1-.51.13,1.12,1.12,0,0,1-.47-.1.37.37,0,0,1-.21-.34" transform="translate(0 15.65)"/><path class="cls-2" d="M68,97.73l-.08,0h-.07a.36.36,0,0,1-.3-.17.59.59,0,0,1-.12-.35.33.33,0,0,1,.18-.32L69,96.25h.13a.35.35,0,0,1,.3.17.54.54,0,0,1,.13.35.41.41,0,0,1,0,.18.26.26,0,0,1-.14.13ZM67.73,99a.32.32,0,0,1,.21-.32,1,1,0,0,1,.47-.1,1.07,1.07,0,0,1,.47.1.33.33,0,0,1,.21.32v6.84a.37.37,0,0,1-.21.33,1.08,1.08,0,0,1-.47.11,1,1,0,0,1-.47-.11.35.35,0,0,1-.21-.33Z" transform="translate(0 15.65)"/><path class="cls-2" d="M73.32,106.31a1.65,1.65,0,0,1-.3,0,1.11,1.11,0,0,1-.27-.12.63.63,0,0,1-.21-.18.35.35,0,0,1-.09-.23l0-.11,2-6.62a.51.51,0,0,1,.32-.35,1.26,1.26,0,0,1,.55-.11,1.3,1.3,0,0,1,.56.11.55.55,0,0,1,.32.35l2,6.62a.62.62,0,0,1,0,.11.35.35,0,0,1-.09.23,1.2,1.2,0,0,1-.21.17.9.9,0,0,1-.28.13,1.55,1.55,0,0,1-.29,0,.56.56,0,0,1-.3-.07A.32.32,0,0,1,77,106l-.4-1.4H74.18l-.4,1.4a.32.32,0,0,1-.16.21.6.6,0,0,1-.3.07m3-2.75-.91-3.23-.92,3.23Z" transform="translate(0 15.65)"/><path class="cls-2" d="M88.87,98.61a3.73,3.73,0,0,1,1,.13,2.14,2.14,0,0,1,.79.42,1.93,1.93,0,0,1,.53.74,3.08,3.08,0,0,1,.19,1.12v2.88a3.08,3.08,0,0,1-.19,1.12,1.93,1.93,0,0,1-.53.74,2.14,2.14,0,0,1-.79.42,3.73,3.73,0,0,1-1,.13H87a.68.68,0,0,1-.44-.13.35.35,0,0,1-.16-.29V99a.35.35,0,0,1,.16-.29.68.68,0,0,1,.44-.13Zm-1.09,1.2v5.3h1.09a1.09,1.09,0,0,0,.82-.3,1.26,1.26,0,0,0,.29-.91V101a1.26,1.26,0,0,0-.29-.91,1.09,1.09,0,0,0-.82-.3Z" transform="translate(0 15.65)"/><path class="cls-2" d="M96.52,101.92h1.6a.35.35,0,0,1,.32.17.67.67,0,0,1,.11.37.72.72,0,0,1-.11.36.35.35,0,0,1-.32.17h-1.6v2.12h3a.36.36,0,0,1,.32.18.86.86,0,0,1,.11.43.83.83,0,0,1-.11.4.36.36,0,0,1-.32.19H95.75a.85.85,0,0,1-.42-.11.37.37,0,0,1-.18-.33V99a.36.36,0,0,1,.18-.32.85.85,0,0,1,.42-.11H99.5a.34.34,0,0,1,.32.19.83.83,0,0,1,.11.4.86.86,0,0,1-.11.43.36.36,0,0,1-.32.18h-3Z" transform="translate(0 15.65)"/><path class="cls-2" d="M107.58,99.29l0-.11a.4.4,0,0,1,.08-.23.91.91,0,0,1,.21-.18,1.39,1.39,0,0,1,.28-.12,1.67,1.67,0,0,1,.29,0,.67.67,0,0,1,.3.06.39.39,0,0,1,.17.21l1.61,5.71,1.6-5.71a.34.34,0,0,1,.16-.21.67.67,0,0,1,.3-.06,1.55,1.55,0,0,1,.29,0,1.18,1.18,0,0,1,.28.12l.21.18a.35.35,0,0,1,.06.34l-2,6.62a.55.55,0,0,1-.32.35,1.47,1.47,0,0,1-.56.11,1.43,1.43,0,0,1-.56-.11.6.6,0,0,1-.33-.35Z" transform="translate(0 15.65)"/><path class="cls-2" d="M116.71,106.31a1.55,1.55,0,0,1-.29,0,1.39,1.39,0,0,1-.28-.12.91.91,0,0,1-.21-.18.35.35,0,0,1-.06-.34l2-6.62a.55.55,0,0,1,.33-.35,1.22,1.22,0,0,1,.54-.11,1.27,1.27,0,0,1,.56.11.55.55,0,0,1,.33.35l2,6.62,0,.11a.4.4,0,0,1-.08.23,1.2,1.2,0,0,1-.21.17,1,1,0,0,1-.28.13,1.67,1.67,0,0,1-.29,0,.56.56,0,0,1-.3-.07.33.33,0,0,1-.17-.21l-.4-1.4h-2.41l-.4,1.4a.32.32,0,0,1-.16.21.56.56,0,0,1-.3.07m3-2.75-.92-3.23-.91,3.23Z" transform="translate(0 15.65)"/><path class="cls-2" d="M125.67,106.31a.85.85,0,0,1-.42-.11.37.37,0,0,1-.18-.33V99a.33.33,0,0,1,.21-.32,1.15,1.15,0,0,1,.94,0,.33.33,0,0,1,.22.32v6.08H129a.33.33,0,0,1,.31.18.93.93,0,0,1,.1.42,1,1,0,0,1-.1.41.34.34,0,0,1-.31.19Z" transform="translate(0 15.65)"/><path class="cls-2" d="M135.05,106.37a3.42,3.42,0,0,1-1-.13,2.14,2.14,0,0,1-.77-.42,1.85,1.85,0,0,1-.53-.74,3,3,0,0,1-.19-1.12V101a3.08,3.08,0,0,1,.19-1.12,1.93,1.93,0,0,1,.53-.74,2.14,2.14,0,0,1,.77-.42,3.72,3.72,0,0,1,2,0,2.22,2.22,0,0,1,.79.42,1.91,1.91,0,0,1,.52.74,2.88,2.88,0,0,1,.19,1.12V104a2.85,2.85,0,0,1-.19,1.12,1.83,1.83,0,0,1-.52.74,2.22,2.22,0,0,1-.79.42,3.39,3.39,0,0,1-1,.13m1.1-5.35a1.23,1.23,0,0,0-.29-.92,1.13,1.13,0,0,0-.81-.29,1.1,1.1,0,0,0-.81.29,1.27,1.27,0,0,0-.29.92V104a1.27,1.27,0,0,0,.29.92,1.1,1.1,0,0,0,.81.29,1.13,1.13,0,0,0,.81-.29,1.23,1.23,0,0,0,.29-.92Z" transform="translate(0 15.65)"/><path class="cls-2" d="M141.32,99a.4.4,0,0,1,.12-.29.42.42,0,0,1,.33-.13h2.08a4.3,4.3,0,0,1,1,.11,2.48,2.48,0,0,1,.79.36,1.74,1.74,0,0,1,.54.68,2.5,2.5,0,0,1,.19,1,2.28,2.28,0,0,1-.39,1.42,1.93,1.93,0,0,1-1,.69l1.37,2.56a.13.13,0,0,1,0,.09s0,.05,0,.07a.52.52,0,0,1-.08.26.74.74,0,0,1-.2.23,1.1,1.1,0,0,1-.28.17.8.8,0,0,1-.3.06.5.5,0,0,1-.26-.08.65.65,0,0,1-.21-.25l-1.49-2.9h-.89v2.74a.36.36,0,0,1-.21.33,1.06,1.06,0,0,1-.94,0,.37.37,0,0,1-.22-.33Zm1.37.78v2.24h1.16a1.29,1.29,0,0,0,.82-.24,1.39,1.39,0,0,0,0-1.75,1.29,1.29,0,0,0-.82-.25Z" transform="translate(0 15.65)"/><g class="cls-14"><rect class="cls-15" x="180.69" y="49.42" width="4.28" height="3.83" transform="translate(52.38 204.99) rotate(-62.29)"/></g><g class="cls-16"><rect class="cls-17" x="175.26" y="40.39" width="6.52" height="5.69" transform="translate(57.24 196.84) rotate(-62.29)"/></g><g class="cls-18"><rect class="cls-19" x="172.06" y="33.21" width="4.28" height="3.83" transform="translate(62.11 188.68) rotate(-62.29)"/></g><g class="cls-20"><rect class="cls-21" x="203.22" y="48.95" width="4.28" height="3.83" transform="translate(64.85 224.69) rotate(-62.29)"/></g><g class="cls-22"><rect class="cls-23" x="203.38" y="27.74" width="19.76" height="16.64" transform="translate(82.18 223.76) rotate(-62.29)"/></g><g class="cls-24"><rect class="cls-25" x="219.02" y="19.34" width="4.28" height="3.83" transform="translate(99.52 222.82) rotate(-62.29)"/></g><g class="cls-26"><rect class="cls-27" x="215.48" y="69.14" width="2.66" height="3.88" transform="translate(53.08 245.64) rotate(-62.29)"/></g><g class="cls-28"><rect class="cls-29" x="227.35" y="63.25" width="8.84" height="15.66" transform="translate(61.09 258.88) rotate(-62.29)"/></g><g class="cls-30"><rect class="cls-31" x="245.4" y="69.13" width="2.66" height="3.88" transform="translate(69.1 272.13) rotate(-62.29)"/></g><g class="cls-32"><rect class="cls-33" x="181.38" y="89.57" width="4.28" height="3.83" transform="translate(17.2 227.08) rotate(-62.29)"/></g><g class="cls-34"><rect class="cls-35" x="166.99" y="97.5" width="18.35" height="15.48" transform="translate(1.09 227.93) rotate(-62.29)"/></g><g class="cls-36"><rect class="cls-37" x="166.68" y="117.09" width="4.28" height="3.83" transform="translate(-15.03 228.79) rotate(-62.29)"/></g><g class="cls-38"><rect class="cls-39" x="203.14" y="89.04" width="4.28" height="3.87" transform="translate(29.29 246.07) rotate(-62.29)"/></g><g class="cls-40"><rect class="cls-41" x="206.85" y="97.37" width="7.95" height="6.95" transform="translate(23.52 256.26) rotate(-62.29)"/></g><g class="cls-42"><rect class="cls-43" x="214.23" y="108.79" width="4.28" height="3.87" transform="translate(17.75 266.46) rotate(-62.29)"/></g></g></g></svg>